<?xml version="1.0" standalone="no"?>
<!DOCTYPE svg PUBLIC "-//W3C//DTD SVG 20010904//EN"
 "http://www.w3.org/TR/2001/REC-SVG-20010904/DTD/svg10.dtd">
<svg version="1.0" xmlns="http://www.w3.org/2000/svg"
 width="222.000000pt" height="227.000000pt" viewBox="0 0 222.000000 227.000000"
 preserveAspectRatio="xMidYMid meet">

<g transform="translate(0.000000,227.000000) scale(0.100000,-0.100000)"
fill="#000000" stroke="none">
<path d="M983 2015 c-86 -24 -154 -64 -224 -134 -145 -146 -192 -347 -125
-542 30 -85 73 -150 192 -285 127 -143 178 -212 225 -306 51 -101 66 -103 113
-10 48 94 117 188 237 324 159 178 205 269 216 422 20 298 -214 548 -512 545
-38 0 -94 -7 -122 -14z m243 -246 c168 -79 206 -306 73 -438 -51 -50 -112 -75
-189 -74 -77 0 -123 17 -180 69 -53 48 -81 103 -87 175 -19 206 195 356 383
268z"/>
<path d="M446 1001 c5 -5 95 -59 201 -120 171 -99 252 -133 241 -101 -2 5 -48
59 -102 120 l-99 110 -126 0 c-76 0 -121 -4 -115 -9z"/>
<path d="M1497 943 c-37 -38 -63 -69 -59 -71 12 -4 453 76 461 83 3 4 -7 18
-22 31 -27 23 -34 24 -171 24 l-144 0 -65 -67z"/>
<path d="M250 818 c-60 -128 -72 -159 -66 -165 3 -3 102 12 220 33 119 21 213
41 208 45 -12 12 -303 179 -311 179 -5 0 -27 -42 -51 -92z"/>
<path d="M1600 786 l-285 -51 -33 -50 c-37 -56 -75 -126 -70 -129 3 -3 233
-136 429 -249 l116 -67 214 0 c221 0 239 3 239 40 0 9 -44 113 -98 231 -55
118 -111 240 -125 272 -25 55 -27 57 -64 56 -21 -1 -166 -24 -323 -53z"/>
<path d="M455 585 c-165 -30 -309 -56 -320 -59 -15 -4 -35 -39 -73 -121 -28
-63 -52 -121 -52 -129 0 -36 14 -36 739 -34 l712 3 -183 105 c-101 58 -255
146 -343 197 -88 51 -164 93 -170 92 -5 0 -145 -25 -310 -54z"/>
</g>
</svg>
